<svg width="312" height="200" viewBox="0 0 312 200" fill="none" xmlns="http://www.w3.org/2000/svg">
<g clip-path="url(#clip0_32_396)">
<path d="M4.7619 129.502H51.7075C55.7009 129.509 59.6463 128.631 63.2601 126.932C66.8739 125.232 70.0664 122.754 72.6082 119.674L109.341 75.144C111.057 73.116 109.729 69.9958 107.077 69.9958H91.4848C89.8448 69.9958 88.3647 70.6999 87.3527 71.9479L51.8675 115.229C45.7073 122.638 38.767 123.81 31.7468 123.81L8.11801 123.89C7.68118 123.921 7.25524 124.04 6.86604 124.241C6.47684 124.442 6.1325 124.72 5.85394 125.058L3.82587 128.018C3.59386 128.646 4.06188 129.502 4.7619 129.502ZM90.0768 125.214L109.185 101.581C111.352 98.891 114.095 96.7233 117.214 95.2386C120.332 93.7539 123.744 92.9904 127.198 93.0046H154.651C155.275 93.0046 155.743 93.0846 156.051 93.6286L157.927 96.2007C158.067 96.3896 158.151 96.6135 158.171 96.8475C158.192 97.0815 158.147 97.3165 158.041 97.5265C157.936 97.7365 157.775 97.9133 157.575 98.0373C157.376 98.1612 157.146 98.2275 156.911 98.2288H139.054C136.351 98.2345 133.683 98.839 131.242 99.9989C128.8 101.159 126.646 102.845 124.934 104.937L106.921 127.162C106.35 127.847 105.634 128.398 104.825 128.776C104.016 129.153 103.134 129.348 102.241 129.346H91.9488C89.7648 129.502 88.6727 126.93 90.0768 125.214Z" fill="black"/>
<path d="M123.065 75.3003H147.786C154.182 75.3003 160.266 78.1844 164.319 83.1006L200.504 127.082C201.832 128.642 203.784 129.578 205.808 129.578H220.705C223.277 129.578 224.681 126.538 223.045 124.586L185.299 78.7324C180.619 73.0362 173.055 69.6841 162.139 69.6841H126.417C125.983 69.6735 125.554 69.7755 125.171 69.9802C124.789 70.1849 124.465 70.4853 124.233 70.8521L122.205 73.7402C121.817 74.4403 122.285 75.3003 123.065 75.3003ZM275.922 70.7761L278.026 73.6642C278.574 74.3643 278.026 75.3803 277.17 75.3803H233.341C230.689 75.3003 229.441 78.1084 231.469 80.6045L259.47 114.686C264.614 121.234 270.698 123.806 280.29 123.806H303.451C304.311 123.806 305.167 124.278 305.635 124.978L307.583 127.866C308.051 128.49 307.583 129.426 306.803 129.426L259.39 129.506C251.434 129.426 245.117 126.386 238.877 119.366L202.456 75.1403C200.74 73.0362 201.988 69.8361 204.64 69.8361H274.13C274.754 69.7561 275.458 70.1481 275.926 70.7721L275.922 70.7761Z" fill="black"/>
</g>
<defs>
<clipPath id="clip0_32_396">
<rect width="304.01" height="72.0024" fill="white" transform="translate(3.76172 63.6843)"/>
</clipPath>
</defs>
</svg>
