<svg width="200" height="200" viewBox="0 0 200 200" fill="none" xmlns="http://www.w3.org/2000/svg">
<path d="M99.9668 164.469C64.9149 164.469 35.8425 135.397 35.8425 100.345C35.8425 98.5223 35.9262 96.7163 36.0805 94.9293L89.7349 98.2772L66.5282 114.31C66.214 114.531 66.007 114.895 66.007 115.307C66.007 115.978 66.5519 116.523 67.2229 116.523H161.976C154.69 143.908 129.444 164.469 99.9668 164.469ZM99.9668 36.2182C135.019 36.2182 164.091 65.293 164.091 100.345C164.091 102.153 164.011 103.948 163.858 105.723L110.256 102.315L133.515 86.3775C133.831 86.1562 134.036 85.7922 134.036 85.3805C134.036 84.7095 133.494 84.1646 132.825 84.1646H37.9577C45.2461 56.7792 70.4898 36.2182 99.9668 36.2182ZM191.933 107.507L174.39 106.391C174.55 104.397 174.635 102.379 174.635 100.345C174.635 59.1064 141.205 25.6772 99.9668 25.6772C64.2866 25.6772 34.4551 50.7068 27.0645 84.1646H13.2874C12.3856 84.1646 11.5788 84.5929 11.0673 85.2592L6.96738 90.9199C6.78278 91.1579 6.67236 91.4553 6.67236 91.7789C6.67236 92.5546 7.29839 93.1804 8.07411 93.1804L25.5489 94.2702C25.387 96.2737 25.3014 98.2987 25.3014 100.345C25.3014 141.581 58.7305 175.01 99.9668 175.01C135.647 175.01 165.478 149.981 172.872 116.523H186.718C187.622 116.523 188.426 116.095 188.938 115.428L193.04 109.768C193.225 109.53 193.335 109.232 193.335 108.909C193.335 108.133 192.707 107.507 191.933 107.507Z" fill="#1A171B"/>
</svg>
