<svg width="200" height="200" viewBox="0 0 200 200" fill="none" xmlns="http://www.w3.org/2000/svg">
<path fill-rule="evenodd" clip-rule="evenodd" d="M100.054 53.9094C112.791 53.9094 124.113 59.0985 132.369 67.3541C140.86 75.6096 145.814 87.1673 145.814 99.9044C145.814 112.406 140.86 123.963 132.369 132.219C124.113 140.474 112.791 145.664 100.054 145.664C87.3173 145.664 75.9954 140.474 67.504 132.219C59.2485 123.963 54.0593 112.406 54.0593 99.9044C54.0593 87.1673 59.2485 75.6096 67.504 67.3541C75.9954 59.0985 87.3173 53.9094 100.054 53.9094ZM100.054 54.617C87.5532 54.617 76.2313 59.8062 68.2116 67.8258C59.9561 76.0813 54.7669 87.4032 54.7669 99.9044C54.7669 112.406 59.9561 123.727 68.2116 131.747C76.2313 140.003 87.5532 144.956 100.054 144.956C112.556 144.956 123.877 140.003 131.897 131.747C140.153 123.727 145.106 112.406 145.106 99.9044C145.106 87.4032 140.153 76.0813 131.897 67.8258C123.877 59.8062 112.556 54.617 100.054 54.617Z" fill="#BDBEB7"/>
<path fill-rule="evenodd" clip-rule="evenodd" d="M100.054 29.6145C116.093 29.6145 130.953 35.0396 142.747 44.0027L150.531 36.2189L164.211 49.8995L156.427 57.9191C165.155 69.7127 170.108 84.1009 170.108 99.6685C170.108 138.351 138.737 169.958 100.054 169.958C61.371 169.958 30 138.351 30 99.6685C30 60.9855 61.371 29.6145 100.054 29.6145ZM100.054 46.1255C70.57 46.1255 46.511 70.1845 46.511 99.6685C46.511 129.388 70.57 153.211 100.054 153.211C129.538 153.211 153.597 129.388 153.597 99.6685C153.597 70.1845 129.538 46.1255 100.054 46.1255Z" fill="url(#paint0_radial_24_19687)"/>
<path fill-rule="evenodd" clip-rule="evenodd" d="M100.054 45.8897C114.914 45.8897 128.358 51.7865 138.265 61.6931C147.936 71.3639 154.068 84.8086 154.068 99.9044C154.068 114.764 147.936 128.209 138.265 138.116C128.358 147.786 114.914 153.919 100.054 153.919C85.1938 153.919 71.5132 147.786 61.8425 138.116C52.1717 128.209 46.0391 114.764 46.0391 99.9044C46.0391 84.8086 52.1717 71.3639 61.8425 61.6931C71.5132 51.7865 85.1938 45.8897 100.054 45.8897ZM100.054 46.5973C85.4297 46.5973 71.985 52.4941 62.3142 62.1649C52.6435 71.8356 46.7467 85.0445 46.7467 99.9044C46.7467 114.528 52.6435 127.973 62.3142 137.644C71.985 147.079 85.4297 153.211 100.054 153.211C114.678 153.211 128.123 147.079 137.793 137.644C147.464 127.973 153.361 114.528 153.361 99.9044C153.361 85.0445 147.464 71.8356 137.793 62.1649C128.123 52.4941 114.678 46.5973 100.054 46.5973Z" fill="url(#paint1_linear_24_19687)"/>
<path fill-rule="evenodd" clip-rule="evenodd" d="M100.054 29.1426C116.093 29.1426 131.189 34.5676 142.983 43.7666L142.747 44.0025C130.953 35.0394 116.093 29.6143 100.054 29.6143C61.3708 29.6143 29.9998 60.9853 29.9998 99.6683C29.9998 138.351 61.3708 169.958 100.054 169.958C138.737 169.958 170.108 138.351 170.108 99.6683C170.108 84.1008 165.154 69.7126 156.427 57.919L156.663 57.6831C165.39 69.4767 170.58 83.8649 170.58 99.6683C170.58 119.246 162.56 136.936 149.823 149.673C137.086 162.41 119.631 170.194 100.054 170.194C80.7123 170.194 63.0219 162.41 50.2848 149.673C37.5477 136.7 29.5281 119.246 29.5281 99.6683C29.5281 80.3268 37.5477 62.6364 50.2848 49.8993C63.0219 37.1622 80.4764 29.1426 100.054 29.1426Z" fill="url(#paint2_radial_24_19687)"/>
<path fill-rule="evenodd" clip-rule="evenodd" d="M100.054 46.3612C129.538 46.3612 153.597 70.1843 153.597 99.9041C153.597 129.388 129.538 153.447 100.054 153.447C70.5699 153.447 46.511 129.388 46.511 99.9041C46.511 70.1843 70.5699 46.3612 100.054 46.3612ZM100.054 53.9091C74.8156 53.9091 54.2948 74.43 54.2948 99.9041C54.2948 125.142 74.8156 145.663 100.054 145.663C125.292 145.663 145.813 125.142 145.813 99.9041C145.813 74.43 125.292 53.9091 100.054 53.9091Z" fill="url(#paint3_radial_24_19687)"/>
<path opacity="0.67" fill-rule="evenodd" clip-rule="evenodd" d="M36.0479 116.668C36.0479 116.733 36.0642 116.795 36.097 116.851C36.1265 116.907 36.1789 116.933 36.2477 116.933C36.3001 116.933 36.3492 116.92 36.4017 116.894C36.4541 116.868 36.5065 116.828 36.5655 116.776V116.258C36.3689 116.288 36.2346 116.337 36.1592 116.406C36.0839 116.478 36.0479 116.566 36.0479 116.668Z" fill="url(#paint4_linear_24_19687)"/>
<path opacity="0.67" d="M46.3609 115.18H46.0342V115.455H46.3609V115.18Z" fill="url(#paint5_linear_24_19687)"/>
<path opacity="0.67" d="M46.3609 115.511H46.0342V115.795H46.3609V115.511Z" fill="url(#paint6_linear_24_19687)"/>
<path opacity="0.67" fill-rule="evenodd" clip-rule="evenodd" d="M39.3669 116.668C39.3669 116.733 39.3833 116.795 39.4161 116.851C39.4456 116.907 39.498 116.933 39.5668 116.933C39.6192 116.933 39.6683 116.92 39.7208 116.894C39.7732 116.868 39.8256 116.828 39.8846 116.776V116.258C39.688 116.288 39.5537 116.337 39.4783 116.406C39.403 116.478 39.3669 116.566 39.3669 116.668Z" fill="url(#paint7_linear_24_19687)"/>
<path opacity="0.67" d="M48.3764 115.665H47.469V116.094H48.3764V115.665Z" fill="url(#paint8_linear_24_19687)"/>
<path opacity="0.67" fill-rule="evenodd" clip-rule="evenodd" d="M56.605 114.181H31.5239C32.1431 117.126 33.0014 119.983 33.9776 122.781H60.4805C58.9113 120.071 57.6009 117.202 56.605 114.181ZM45.9121 114.728L46.1021 114.849L46.0333 114.928V115.128H46.3446L46.4133 115.016L46.5444 115.17L46.4756 115.249V115.459H46.5116L46.6066 115.337L46.7442 115.514H46.4756C46.4756 115.691 46.4789 115.816 46.4821 115.891L46.3609 115.963V115.852H46.0333V116.173H46.2856L46.3708 116.039L46.5018 116.229H46.0333V116.527H46.4396L46.5346 116.373L46.682 116.582H46.0333C46.0333 116.707 46.0366 116.841 46.0497 116.982L45.9121 117.048C45.9187 116.877 45.9219 116.723 45.9219 116.582H45.578C45.5255 116.582 45.483 116.592 45.4469 116.615L45.3683 116.527H45.9219V116.229H45.673C45.6271 116.229 45.5943 116.238 45.5681 116.261L45.4993 116.173H45.9219V115.852H45.673C45.6271 115.852 45.5943 115.862 45.5681 115.885L45.4993 115.796H45.9219V115.511H45.5485C45.5026 115.511 45.4699 115.521 45.4469 115.544L45.3781 115.455H45.9252V115.18H45.6893C45.6435 115.18 45.6074 115.19 45.5845 115.213L45.5157 115.125H45.9219C45.9219 114.971 45.9187 114.836 45.9121 114.728ZM35.5927 116.998H34.9179V116.933H35.1144C35.1439 116.933 35.1636 116.926 35.1767 116.91C35.1898 116.894 35.193 116.874 35.193 116.844V115.265C35.193 115.236 35.1865 115.213 35.1767 115.2C35.1636 115.187 35.1439 115.177 35.1144 115.177H34.9179V115.111H35.0161C35.0686 115.111 35.1177 115.105 35.1668 115.088C35.2127 115.075 35.2586 115.052 35.3012 115.023H35.3175V116.844C35.3175 116.874 35.3241 116.897 35.3372 116.91C35.3536 116.923 35.37 116.933 35.3962 116.933H35.596L35.5927 116.998ZM36.8245 116.939C36.795 116.979 36.759 117.002 36.7131 117.002C36.6738 117.002 36.641 116.992 36.6181 116.969C36.5952 116.949 36.5788 116.91 36.5657 116.858C36.5067 116.91 36.4543 116.949 36.4052 116.975C36.356 116.998 36.2971 117.011 36.2283 117.011C36.1234 117.011 36.0448 116.979 35.9858 116.916C35.9269 116.854 35.9007 116.782 35.9007 116.704C35.9007 116.569 35.9465 116.461 36.035 116.376C36.1234 116.291 36.3003 116.232 36.5657 116.192V116.061C36.5657 115.989 36.5526 115.927 36.5264 115.878C36.5002 115.829 36.4412 115.806 36.3495 115.806C36.2512 115.806 36.1824 115.826 36.1431 115.868C36.1038 115.911 36.0874 115.95 36.1005 115.996C36.1103 116.025 36.1103 116.055 36.1005 116.084C36.0874 116.114 36.0645 116.127 36.0317 116.127C36.0088 116.127 35.9891 116.117 35.976 116.101C35.9629 116.081 35.9531 116.055 35.9531 116.019C35.9531 115.95 35.9891 115.888 36.0645 115.829C36.1398 115.77 36.2315 115.74 36.3396 115.74C36.4543 115.74 36.5428 115.767 36.5985 115.822C36.6574 115.878 36.6836 115.957 36.6836 116.058V116.789C36.6836 116.848 36.6869 116.884 36.6967 116.894C36.7066 116.903 36.7197 116.91 36.7459 116.91C36.7754 116.91 36.795 116.894 36.8048 116.861C36.8147 116.828 36.8212 116.782 36.8212 116.723H36.8638C36.8671 116.828 36.854 116.9 36.8245 116.939ZM37.9482 116.998H37.5845V116.933H37.6271C37.6566 116.933 37.6763 116.926 37.6894 116.91C37.7025 116.894 37.7057 116.874 37.7057 116.844V116.104C37.7057 116.016 37.6926 115.947 37.6631 115.898C37.6337 115.849 37.5911 115.826 37.5354 115.826C37.483 115.826 37.4306 115.849 37.3749 115.891C37.3192 115.937 37.27 115.999 37.2242 116.081V116.844C37.2242 116.874 37.2307 116.897 37.2471 116.91C37.2602 116.923 37.2799 116.933 37.3028 116.933H37.3454V116.998H36.9817V116.933H37.0243C37.0538 116.933 37.0735 116.926 37.0866 116.91C37.0997 116.894 37.103 116.874 37.103 116.844V115.891C37.103 115.871 37.0997 115.852 37.0931 115.842C37.0866 115.832 37.0735 115.826 37.0571 115.826H36.9817V115.76H37.044C37.0735 115.76 37.103 115.757 37.1292 115.75C37.1554 115.744 37.1816 115.727 37.2045 115.704H37.2209V115.96C37.2733 115.888 37.3257 115.832 37.3749 115.796C37.4273 115.757 37.4797 115.74 37.5387 115.74C37.6369 115.74 37.709 115.773 37.7549 115.839C37.8007 115.907 37.8237 116.006 37.8237 116.137V116.844C37.8237 116.874 37.8302 116.897 37.8466 116.91C37.863 116.923 37.8794 116.933 37.9023 116.933H37.9449L37.9482 116.998ZM38.8687 116.91C38.8196 116.975 38.7541 117.008 38.6722 117.008C38.587 117.008 38.5215 116.975 38.4789 116.91C38.4363 116.841 38.4134 116.74 38.4134 116.599V115.826H38.1578V115.76H38.2266C38.2954 115.76 38.3544 115.734 38.397 115.678C38.4396 115.622 38.4658 115.537 38.4789 115.419L38.4854 115.331H38.5378V115.76H38.8818V115.826H38.5378V116.645C38.5378 116.749 38.5509 116.818 38.5804 116.854C38.6099 116.894 38.6525 116.91 38.7115 116.91C38.7704 116.91 38.8163 116.887 38.8491 116.838C38.8818 116.789 38.908 116.72 38.9179 116.631L38.9604 116.654C38.9506 116.759 38.9179 116.844 38.8687 116.91ZM40.1431 116.939C40.1136 116.979 40.0776 117.002 40.0317 117.002C39.9924 117.002 39.9596 116.992 39.9367 116.969C39.9138 116.949 39.8974 116.91 39.8843 116.858C39.8253 116.91 39.7729 116.949 39.7238 116.975C39.6746 117.002 39.6156 117.015 39.5468 117.015C39.442 117.015 39.3634 116.982 39.3044 116.92C39.2455 116.858 39.2192 116.785 39.2192 116.707C39.2192 116.573 39.2651 116.464 39.3536 116.379C39.442 116.294 39.6189 116.235 39.8843 116.196V116.061C39.8843 115.989 39.8712 115.927 39.845 115.878C39.8188 115.829 39.7598 115.806 39.6681 115.806C39.5698 115.806 39.501 115.826 39.4617 115.868C39.4191 115.907 39.406 115.95 39.4158 115.996C39.4256 116.025 39.4256 116.055 39.4158 116.084C39.406 116.114 39.383 116.127 39.347 116.127C39.3241 116.127 39.3044 116.117 39.2913 116.101C39.2782 116.081 39.2684 116.055 39.2684 116.019C39.2684 115.95 39.3044 115.888 39.3798 115.829C39.4551 115.77 39.5468 115.74 39.655 115.74C39.7696 115.74 39.8581 115.767 39.9138 115.822C39.9727 115.878 39.9989 115.957 39.9989 116.058V116.789C39.9989 116.848 40.0022 116.884 40.012 116.894C40.0219 116.903 40.035 116.91 40.0612 116.91C40.0907 116.91 40.1103 116.894 40.1201 116.861C40.13 116.828 40.1365 116.782 40.1365 116.723H40.1791C40.1857 116.828 40.1693 116.9 40.1431 116.939ZM41.2176 115.993C41.2045 116.016 41.1816 116.025 41.1521 116.025C41.1226 116.025 41.0997 116.016 41.0866 115.993C41.0735 115.973 41.0669 115.94 41.0735 115.904C41.0735 115.881 41.0702 115.865 41.0669 115.849C41.0604 115.835 41.044 115.826 41.0145 115.826C40.9686 115.826 40.9129 115.862 40.8474 115.937C40.7819 116.009 40.7229 116.114 40.6705 116.248V116.844C40.6705 116.874 40.6771 116.897 40.6902 116.91C40.7033 116.923 40.7229 116.933 40.7459 116.933H40.9359V116.998H40.2971V116.933H40.4707C40.5002 116.933 40.5198 116.926 40.5329 116.91C40.546 116.894 40.5493 116.874 40.5493 116.844V115.927C40.5493 115.898 40.5428 115.875 40.5329 115.855C40.5198 115.839 40.5002 115.829 40.4707 115.829H40.2971V115.763H40.3658C40.4084 115.763 40.4576 115.76 40.5133 115.747C40.569 115.737 40.6115 115.724 40.641 115.708H40.6672V116.107C40.7262 115.989 40.7885 115.901 40.854 115.835C40.9195 115.77 40.9883 115.74 41.0571 115.74C41.1161 115.74 41.1586 115.757 41.1914 115.79C41.2242 115.822 41.2405 115.862 41.2405 115.904C41.2405 115.944 41.234 115.973 41.2176 115.993ZM43.6582 116.579V117.021C43.6582 117.175 43.596 117.283 43.4682 117.342C43.4649 117.231 43.3732 117.152 43.1996 117.1V117.057C43.3142 117.07 43.3994 117.08 43.4518 117.084C43.5043 117.087 43.5272 117.041 43.5272 116.946V116.582H42.8294C42.7639 116.582 42.7082 116.592 42.6558 116.615L42.587 116.527H43.5272C43.5272 116.432 43.5239 116.324 43.5206 116.206L43.632 116.271L43.8646 116.016H43.1472L43.0686 116.048L43.003 115.963H43.8581L43.9531 115.852L44.107 116.071C44.0251 116.058 43.8777 116.134 43.6582 116.304L43.7434 116.36L43.6582 116.428V116.527H44.2381L44.3593 116.373L44.5329 116.582L43.6582 116.579ZM44.5395 115.917C44.4543 115.917 44.3888 115.963 44.3495 116.052C43.9924 115.862 43.7631 115.58 43.6582 115.213H43.6058C43.6058 115.557 43.6091 115.763 43.6124 115.829L43.4682 115.875C43.4748 115.714 43.4781 115.511 43.4781 115.265C43.288 115.665 42.9867 115.963 42.5706 116.17L42.5608 116.127C42.9211 115.891 43.1865 115.586 43.3536 115.213H42.8196C42.7541 115.213 42.6984 115.223 42.6459 115.246L42.5772 115.157H43.4748C43.4748 115.092 43.4715 114.957 43.4649 114.761L43.691 114.882L43.6058 114.957V115.157H44.2446L44.3658 115.003L44.5198 115.213H43.7008C43.845 115.573 44.1234 115.793 44.5395 115.875V115.917ZM46.7672 117.11C46.6525 117.156 46.6001 117.208 46.6099 117.277C46.4494 117.283 46.2692 117.283 46.0661 117.277C45.863 117.27 45.6894 117.231 45.5452 117.165C45.3978 117.097 45.2766 117.015 45.1881 116.91C45.1128 117.051 44.9785 117.192 44.7819 117.339L44.7557 117.306C44.9031 117.179 45.0276 117.015 45.1259 116.808C45.0342 116.638 44.9654 116.451 44.9195 116.245L44.9555 116.225C45.0145 116.402 45.0833 116.556 45.1619 116.687C45.2209 116.497 45.2602 116.245 45.2831 115.937H45.0342L44.9621 116.061L44.8441 115.907L44.949 115.852C45.0505 115.639 45.1521 115.423 45.2405 115.2H44.9621L44.8605 115.233L44.7885 115.144H45.2471L45.3257 115.023L45.4469 115.2L45.3519 115.256C45.2536 115.455 45.1488 115.665 45.0407 115.885H45.2733L45.3421 115.786L45.4731 115.94L45.3945 116.016C45.3618 116.327 45.3093 116.582 45.2405 116.789C45.3093 116.877 45.4109 116.946 45.5485 116.998C45.6828 117.051 45.8368 117.08 46.0104 117.093C46.184 117.106 46.4363 117.093 46.7704 117.067L46.7672 117.11ZM48.8998 117.09C48.795 117.11 48.736 117.169 48.7197 117.267C48.5526 117.202 48.4084 117.129 48.2905 117.048C48.1726 116.966 48.0644 116.854 47.9662 116.71C47.8679 116.566 47.7925 116.379 47.7434 116.153H47.4682V117.038L47.9334 116.782L47.9498 116.815C47.6517 117.021 47.4715 117.175 47.4158 117.28L47.311 117.093C47.3339 117.064 47.347 117.021 47.3536 116.959V115.37C47.3536 115.252 47.3503 115.151 47.3437 115.062L47.4649 115.174H47.9039C47.8974 115.043 47.8482 114.915 47.7598 114.784L47.7762 114.751C47.9236 114.83 48.0055 114.905 48.0251 114.971C48.0448 115.036 48.0251 115.105 47.9694 115.17H48.3593L48.4281 115.059L48.5657 115.213L48.4871 115.278V115.907C48.4871 115.989 48.4903 116.084 48.4936 116.196L48.3724 116.251V116.153H47.7958C47.8548 116.346 47.9334 116.507 48.0284 116.638C48.2807 116.484 48.4608 116.337 48.5657 116.196L48.6934 116.415H48.5919C48.4183 116.494 48.2446 116.586 48.0645 116.681C48.1791 116.815 48.3134 116.907 48.4674 116.962C48.6214 117.018 48.7655 117.044 48.9031 117.044L48.8998 117.09Z" fill="url(#paint9_linear_24_19687)"/>
<path opacity="0.67" d="M48.3764 115.223H47.469V115.609H48.3764V115.223Z" fill="url(#paint10_linear_24_19687)"/>
<path opacity="0.86" fill-rule="evenodd" clip-rule="evenodd" d="M143.54 114.181H168.621C168.002 117.126 167.143 119.983 166.167 122.781H139.664C141.234 120.071 142.544 117.202 143.54 114.181Z" fill="url(#paint11_linear_24_19687)"/>
<path fill-rule="evenodd" clip-rule="evenodd" d="M169.872 81.9781C171.523 87.6391 172.231 93.5359 172.231 99.6686C172.231 106.037 171.287 112.17 169.872 118.067H30.4717V117.831H169.636C171.287 111.934 171.995 105.801 171.995 99.4327C171.995 93.3 171.287 87.4032 169.872 81.9781Z" fill="black"/>
<path fill-rule="evenodd" clip-rule="evenodd" d="M30.2357 81.7422H169.872C171.287 87.4031 171.995 93.2999 171.995 99.4326C171.995 105.801 171.287 111.934 169.636 117.831H30.4715C28.8204 111.934 27.877 105.801 27.877 99.4326C27.877 93.2999 28.8204 87.4031 30.2357 81.7422Z" fill="url(#paint12_radial_24_19687)"/>
<path fill-rule="evenodd" clip-rule="evenodd" d="M153.362 31.5012L168.93 47.0688L157.372 58.6265L158.08 59.57L149.824 66.1744L147.229 67.1179L164.212 49.8992L150.532 36.2187L133.549 53.2014L134.256 50.8427L153.362 31.5012Z" fill="url(#paint13_linear_24_19687)"/>
<path fill-rule="evenodd" clip-rule="evenodd" d="M137.794 29.8504C151.475 37.1624 162.561 48.4843 170.108 61.929V29.8504H137.794Z" fill="url(#paint14_radial_24_19687)"/>
<path d="M137.794 29.8504C151.475 37.1624 162.561 48.4843 170.108 61.929" stroke="#A8A89D" stroke-width="1.1145" stroke-linecap="round"/>
<path d="M137.794 29.8504C151.239 37.1624 162.561 48.4843 169.873 61.929" stroke="#C3C3BA" stroke-width="0.773464" stroke-linecap="round"/>
<path d="M137.558 29.8504C151.238 37.1624 162.324 48.4843 169.872 62.1649" stroke="#E1E1D9" stroke-width="0.433742" stroke-linecap="round"/>
<path d="M137.558 29.8504C151.002 37.3983 162.324 48.4843 169.636 62.1649" stroke="white" stroke-width="0.0927108" stroke-linecap="round"/>
<path fill-rule="evenodd" clip-rule="evenodd" d="M170.108 29.1426C170.344 29.1426 170.58 29.3785 170.58 29.8502H137.794H137.322C137.322 29.3785 137.558 29.1426 137.794 29.1426H170.108Z" fill="url(#paint15_linear_24_19687)"/>
<path fill-rule="evenodd" clip-rule="evenodd" d="M170.58 61.9288C170.58 62.4005 170.345 62.6364 170.109 62.6364L169.873 62.1647V29.1426C169.873 29.1426 169.873 29.1426 170.109 29.1426C170.345 29.1426 170.58 29.3785 170.58 29.8502V61.9288Z" fill="url(#paint16_linear_24_19687)"/>
<path fill-rule="evenodd" clip-rule="evenodd" d="M150.534 108.497C144.237 108.497 139.11 104.641 139.11 99.9043C139.11 95.1673 144.234 91.3114 150.534 91.3114C156.958 91.3114 162.19 95.1673 162.19 99.9043C162.19 104.641 156.958 108.497 150.534 108.497ZM150.534 93.8765C148.267 93.8765 146.625 96.4121 146.625 99.9043C146.625 103.21 148.306 105.7 150.534 105.7C152.653 105.7 154.442 103.049 154.442 99.9043C154.442 96.5792 152.686 93.8765 150.534 93.8765ZM78.8253 108.497C72.5288 108.497 67.4019 104.641 67.4019 99.9043C67.4019 95.3736 72.6336 91.5473 78.8253 91.5473C85.2495 91.5473 90.4813 95.295 90.4813 99.9043C90.4813 104.641 85.2495 108.497 78.8253 108.497ZM78.8253 94.1091C76.5976 94.1091 74.917 96.5989 74.917 99.9043C74.917 103.21 76.5976 105.7 78.8253 105.7C80.9449 105.7 82.7335 103.049 82.7335 99.9043C82.7335 96.7594 80.9481 94.1091 78.8253 94.1091ZM129.603 108.022H129.541H120.807L113.413 94.2926L109.728 94.345L109.626 92.1238L125.767 92.0223L125.869 94.2434L121.754 94.3417L127.5 103.865L132.276 94.1943L129.541 94.3417L129.439 92.1206L140.62 92.019L140.722 94.2401L136.847 94.3384L129.626 107.97L129.603 108.022ZM113.836 108.022H113.734H95.1004H91.3265L91.2282 105.333L95.1037 105.234L94.9989 94.2434L91.3232 94.3417L91.2249 92.1206L106.186 92.019L106.288 94.2401L102.412 94.3384L102.514 105.326L106.422 105.228C107.693 105.228 111.038 104.399 111.274 100.602L113.734 100.507L113.836 107.914V108.022ZM57.8949 108.022H57.8327H49.1021L41.7082 94.2926L38.0194 94.3417L37.9211 92.1206L54.062 92.019L54.1603 94.2401L50.0522 94.3417L55.7983 103.865L60.8106 94.1943L57.8327 94.3417L57.7311 92.1206L68.9219 92.019L69.0202 94.2401L65.1382 94.3384L57.9211 107.97L57.8949 108.022Z" fill="white"/>
<path d="M150.531 91.4127C156.899 91.4127 162.088 95.1867 162.088 99.9041C162.088 104.622 156.899 108.396 150.531 108.396C144.398 108.396 139.209 104.622 139.209 99.9041C139.209 95.1867 144.398 91.4127 150.531 91.4127ZM150.531 105.801C152.654 105.801 154.541 103.206 154.541 99.9041C154.541 96.3661 152.654 93.7715 150.531 93.7715C148.172 93.7715 146.521 96.3661 146.521 99.9041C146.521 103.206 148.172 105.801 150.531 105.801ZM78.8257 91.6486C85.1942 91.6486 90.3834 95.4226 90.3834 99.9041C90.3834 104.622 85.1942 108.396 78.8257 108.396C72.693 108.396 67.5038 104.622 67.5038 99.9041C67.5038 95.4226 72.693 91.6486 78.8257 91.6486ZM78.8257 105.801C80.9485 105.801 82.8355 103.206 82.8355 99.9041C82.8355 96.6019 80.9485 94.0073 78.8257 94.0073C76.4669 94.0073 74.8158 96.6019 74.8158 99.9041C74.8158 103.206 76.4669 105.801 78.8257 105.801ZM140.624 92.1204V94.2432H136.85L129.538 107.924H120.811L113.499 94.2432H109.725V92.1204H125.764V94.2432H121.754L127.415 103.914L132.369 94.2432H129.538V92.1204H140.624ZM106.187 92.1204V94.2432H102.413V105.329C102.413 105.329 105.007 105.329 106.423 105.329C107.838 105.329 111.14 104.386 111.376 100.612C113.263 100.612 113.735 100.612 113.735 100.612V107.924H95.1008H91.3269V105.329H95.1008V94.2432H91.3269V92.1204H106.187ZM68.919 92.1204V94.2432H65.1451L57.8331 107.924H49.1058L41.7938 94.2432H38.0198V92.1204H54.0591V94.2432H50.0493L55.7102 103.914L60.8994 94.2432H57.8331V92.1204H68.919ZM150.531 91.2162C144.182 91.2162 139.012 95.1146 139.012 99.9041C139.012 104.694 144.179 108.592 150.531 108.592C157.014 108.592 162.285 104.694 162.285 99.9041C162.285 95.1146 157.011 91.2162 150.531 91.2162ZM150.531 105.604C148.355 105.604 146.717 103.154 146.717 99.9041C146.717 96.4643 148.319 93.968 150.531 93.968C152.634 93.968 154.344 96.6314 154.344 99.9041C154.344 102.993 152.598 105.604 150.531 105.604ZM78.8257 91.4521C72.5816 91.4521 67.3072 95.3243 67.3072 99.9041C67.3072 104.694 72.4735 108.592 78.8257 108.592C85.3056 108.592 90.58 104.694 90.58 99.9041C90.58 95.2457 85.3056 91.4521 78.8257 91.4521ZM78.8257 105.604C76.6504 105.604 75.0124 103.154 75.0124 99.9041C75.0124 96.6543 76.6504 94.2039 78.8257 94.2039C80.8928 94.2039 82.6389 96.8149 82.6389 99.9041C82.6389 102.993 80.8928 105.604 78.8257 105.604ZM140.821 91.9238H140.624H129.538H129.342V92.1204V94.2432V94.4398H129.538H132.048L127.405 103.504L122.098 94.4398H125.767H125.964V94.2432V92.1204V91.9238H125.767H109.728H109.532V92.1204V94.2432V94.4398H109.728H113.384L120.641 108.016L120.696 108.12H120.814H129.541H129.659L129.715 108.016L136.971 94.4398H140.627H140.824V94.2432V92.1204V91.9238H140.821ZM106.383 91.9238H106.187H91.3269H91.1303V92.1204V94.2432V94.4398H91.3269H94.9043V105.133H91.3269H91.1303V105.329V107.924V108.12H91.3269H95.1008H113.735H113.931V107.924V100.612V100.415H113.735H111.376H111.193L111.183 100.599C110.95 104.317 107.668 105.133 106.423 105.133H102.609V94.4398H106.187H106.383V94.2432V92.1204V91.9238ZM69.1156 91.9238H68.919H57.8331H57.6365V92.1204V94.2432V94.4398H57.8331H60.5718L55.7037 103.514L50.3933 94.4398H54.0591H54.2557V94.2432V92.1204V91.9238H54.0591H38.0198H37.8232V92.1204V94.2432V94.4398H38.0198H41.6758L48.9322 108.016L48.9879 108.12H49.1058H57.8331H57.951L58.0067 108.016L65.263 94.4398H68.919H69.1156V94.2432V92.1204V91.9238Z" fill="#363639"/>
<path d="M30.4915 82.0142C29.0763 87.6751 28.1328 93.5719 28.1328 99.7046C28.1328 100.212 28.3064 103.216 28.3195 103.721L28.729 108.278C28.7225 107.911 28.5423 100.484 28.5423 100.114C28.5423 93.9814 29.5644 88.2943 30.9797 82.6333L80.3916 82.4269L101.718 82.0174L30.4915 82.0142Z" fill="url(#paint17_linear_24_19687)"/>
<defs>
<radialGradient id="paint0_radial_24_19687" cx="0" cy="0" r="1" gradientUnits="userSpaceOnUse" gradientTransform="translate(49.9656 85.8503) scale(146.323 146.323)">
<stop stop-color="white"/>
<stop offset="0.041" stop-color="#FBFAF8"/>
<stop offset="0.2247" stop-color="#F8F8F5"/>
<stop offset="0.2867" stop-color="#DBDBD8"/>
<stop offset="0.4133" stop-color="#A4A5A2"/>
<stop offset="0.5197" stop-color="#7F807D"/>
<stop offset="0.6004" stop-color="#686966"/>
<stop offset="0.6461" stop-color="#5F5F5D"/>
<stop offset="0.7394" stop-color="#565653"/>
<stop offset="0.8995" stop-color="#393835"/>
<stop offset="1"/>
</radialGradient>
<linearGradient id="paint1_linear_24_19687" x1="72.4063" y1="90.3598" x2="124.867" y2="108.423" gradientUnits="userSpaceOnUse">
<stop stop-color="#DDDCD4"/>
<stop offset="1" stop-color="white"/>
</linearGradient>
<radialGradient id="paint2_radial_24_19687" cx="0" cy="0" r="1" gradientUnits="userSpaceOnUse" gradientTransform="translate(141.692 144.818) scale(160.586 160.586)">
<stop stop-color="#BDBEB9"/>
<stop offset="1" stop-color="#818179"/>
</radialGradient>
<radialGradient id="paint3_radial_24_19687" cx="0" cy="0" r="1" gradientUnits="userSpaceOnUse" gradientTransform="translate(125.315 125.165) scale(112.768)">
<stop stop-color="white"/>
<stop offset="0.1572" stop-color="#F1F1F2"/>
<stop offset="0.2978" stop-color="#E4E5E6"/>
<stop offset="0.335" stop-color="#CFD0D0"/>
<stop offset="0.3996" stop-color="#AFB0AE"/>
<stop offset="0.4637" stop-color="#969895"/>
<stop offset="0.526" stop-color="#868784"/>
<stop offset="0.5858" stop-color="#7C7D7A"/>
<stop offset="0.6404" stop-color="#797A77"/>
<stop offset="0.7377" stop-color="#5D5E5A"/>
<stop offset="0.8456" stop-color="#41403C"/>
<stop offset="0.9369" stop-color="#1A1917"/>
<stop offset="1"/>
</radialGradient>
<linearGradient id="paint4_linear_24_19687" x1="36.3053" y1="116.966" x2="36.3053" y2="116.57" gradientUnits="userSpaceOnUse">
<stop stop-color="white"/>
<stop offset="0.17" stop-color="#F8F8F5"/>
<stop offset="0.427" stop-color="#B2B3AD"/>
<stop offset="0.4352" stop-color="#AEAFA9"/>
<stop offset="0.5344" stop-color="#8A8A85"/>
<stop offset="0.6334" stop-color="#6C6D67"/>
<stop offset="0.7305" stop-color="#52524D"/>
<stop offset="0.8252" stop-color="#3D3C37"/>
<stop offset="0.9163" stop-color="#22211E"/>
<stop offset="1" stop-color="#141311"/>
</linearGradient>
<linearGradient id="paint5_linear_24_19687" x1="46.1979" y1="115.468" x2="46.1979" y2="115.306" gradientUnits="userSpaceOnUse">
<stop stop-color="white"/>
<stop offset="0.17" stop-color="#F8F8F5"/>
<stop offset="0.427" stop-color="#B2B3AD"/>
<stop offset="0.4352" stop-color="#AEAFA9"/>
<stop offset="0.5344" stop-color="#8A8A85"/>
<stop offset="0.6334" stop-color="#6C6D67"/>
<stop offset="0.7305" stop-color="#52524D"/>
<stop offset="0.8252" stop-color="#3D3C37"/>
<stop offset="0.9163" stop-color="#22211E"/>
<stop offset="1" stop-color="#141311"/>
</linearGradient>
<linearGradient id="paint6_linear_24_19687" x1="46.1979" y1="115.81" x2="46.1979" y2="115.643" gradientUnits="userSpaceOnUse">
<stop stop-color="white"/>
<stop offset="0.17" stop-color="#F8F8F5"/>
<stop offset="0.427" stop-color="#B2B3AD"/>
<stop offset="0.4352" stop-color="#AEAFA9"/>
<stop offset="0.5344" stop-color="#8A8A85"/>
<stop offset="0.6334" stop-color="#6C6D67"/>
<stop offset="0.7305" stop-color="#52524D"/>
<stop offset="0.8252" stop-color="#3D3C37"/>
<stop offset="0.9163" stop-color="#22211E"/>
<stop offset="1" stop-color="#141311"/>
</linearGradient>
<linearGradient id="paint7_linear_24_19687" x1="39.6235" y1="116.966" x2="39.6235" y2="116.57" gradientUnits="userSpaceOnUse">
<stop stop-color="white"/>
<stop offset="0.17" stop-color="#F8F8F5"/>
<stop offset="0.427" stop-color="#B2B3AD"/>
<stop offset="0.4352" stop-color="#AEAFA9"/>
<stop offset="0.5344" stop-color="#8A8A85"/>
<stop offset="0.6334" stop-color="#6C6D67"/>
<stop offset="0.7305" stop-color="#52524D"/>
<stop offset="0.8252" stop-color="#3D3C37"/>
<stop offset="0.9163" stop-color="#22211E"/>
<stop offset="1" stop-color="#141311"/>
</linearGradient>
<linearGradient id="paint8_linear_24_19687" x1="47.9227" y1="116.117" x2="47.9227" y2="115.864" gradientUnits="userSpaceOnUse">
<stop stop-color="white"/>
<stop offset="0.17" stop-color="#F8F8F5"/>
<stop offset="0.427" stop-color="#B2B3AD"/>
<stop offset="0.4352" stop-color="#AEAFA9"/>
<stop offset="0.5344" stop-color="#8A8A85"/>
<stop offset="0.6334" stop-color="#6C6D67"/>
<stop offset="0.7305" stop-color="#52524D"/>
<stop offset="0.8252" stop-color="#3D3C37"/>
<stop offset="0.9163" stop-color="#22211E"/>
<stop offset="1" stop-color="#141311"/>
</linearGradient>
<linearGradient id="paint9_linear_24_19687" x1="46.0025" y1="123.19" x2="46.0025" y2="118.14" gradientUnits="userSpaceOnUse">
<stop stop-color="white"/>
<stop offset="0.17" stop-color="#F8F8F5"/>
<stop offset="0.427" stop-color="#B2B3AD"/>
<stop offset="0.4352" stop-color="#AEAFA9"/>
<stop offset="0.5344" stop-color="#8A8A85"/>
<stop offset="0.6334" stop-color="#6C6D67"/>
<stop offset="0.7305" stop-color="#52524D"/>
<stop offset="0.8252" stop-color="#3D3C37"/>
<stop offset="0.9163" stop-color="#22211E"/>
<stop offset="1" stop-color="#141311"/>
</linearGradient>
<linearGradient id="paint10_linear_24_19687" x1="47.9227" y1="115.627" x2="47.9227" y2="115.401" gradientUnits="userSpaceOnUse">
<stop stop-color="white"/>
<stop offset="0.17" stop-color="#F8F8F5"/>
<stop offset="0.427" stop-color="#B2B3AD"/>
<stop offset="0.4352" stop-color="#AEAFA9"/>
<stop offset="0.5344" stop-color="#8A8A85"/>
<stop offset="0.6334" stop-color="#6C6D67"/>
<stop offset="0.7305" stop-color="#52524D"/>
<stop offset="0.8252" stop-color="#3D3C37"/>
<stop offset="0.9163" stop-color="#22211E"/>
<stop offset="1" stop-color="#141311"/>
</linearGradient>
<linearGradient id="paint11_linear_24_19687" x1="154.142" y1="123.19" x2="154.142" y2="118.14" gradientUnits="userSpaceOnUse">
<stop stop-color="white"/>
<stop offset="0.17" stop-color="#F8F8F5"/>
<stop offset="0.427" stop-color="#B2B3AD"/>
<stop offset="0.4352" stop-color="#AEAFA9"/>
<stop offset="0.5344" stop-color="#8A8A85"/>
<stop offset="0.6334" stop-color="#6C6D67"/>
<stop offset="0.7305" stop-color="#52524D"/>
<stop offset="0.8252" stop-color="#3D3C37"/>
<stop offset="0.9163" stop-color="#22211E"/>
<stop offset="1" stop-color="#141311"/>
</linearGradient>
<radialGradient id="paint12_radial_24_19687" cx="0" cy="0" r="1" gradientUnits="userSpaceOnUse" gradientTransform="translate(34.4093 85.8568) scale(91.0351 91.0351)">
<stop stop-color="#0071BC"/>
<stop offset="0.0822" stop-color="#0069AF"/>
<stop offset="0.1658" stop-color="#0064A7"/>
<stop offset="0.2416" stop-color="#0063A5"/>
<stop offset="0.3915" stop-color="#005D9B"/>
<stop offset="0.6854" stop-color="#004C82"/>
<stop offset="0.8371" stop-color="#004274"/>
<stop offset="0.9335" stop-color="#004274"/>
<stop offset="0.9682" stop-color="#004073"/>
<stop offset="0.9929" stop-color="#003D71"/>
<stop offset="1" stop-color="#003B70"/>
</radialGradient>
<linearGradient id="paint13_linear_24_19687" x1="167.547" y1="66.5623" x2="132.072" y2="31.0868" gradientUnits="userSpaceOnUse">
<stop offset="0.0056" stop-color="#0C0B04"/>
<stop offset="0.6461" stop-color="#43423F"/>
<stop offset="0.6504" stop-color="#474643"/>
<stop offset="0.655" stop-color="#53534F"/>
<stop offset="0.6596" stop-color="#646460"/>
<stop offset="0.6642" stop-color="#7C7C78"/>
<stop offset="0.6689" stop-color="#979894"/>
<stop offset="0.6736" stop-color="#BCBDB8"/>
<stop offset="0.6783" stop-color="#E8E8E2"/>
<stop offset="0.68" stop-color="#FBFAF5"/>
<stop offset="0.6824" stop-color="#F9F8F3"/>
<stop offset="0.6839" stop-color="#F1F0EA"/>
<stop offset="0.6852" stop-color="#E4E4DE"/>
<stop offset="0.6864" stop-color="#D3D3CC"/>
<stop offset="0.6874" stop-color="#BCBDB6"/>
<stop offset="0.6885" stop-color="#A2A29B"/>
<stop offset="0.6894" stop-color="#84847D"/>
<stop offset="0.69" stop-color="#6E6E67"/>
<stop offset="0.7057" stop-color="#5F5F5B"/>
<stop offset="0.7315" stop-color="#4C4B4A"/>
<stop offset="0.7621" stop-color="#373736"/>
<stop offset="0.7999" stop-color="#1F1F1F"/>
<stop offset="0.8529" stop-color="#080808"/>
<stop offset="1"/>
</linearGradient>
<radialGradient id="paint14_radial_24_19687" cx="0" cy="0" r="1" gradientUnits="userSpaceOnUse" gradientTransform="translate(164.631 33.4393) scale(38.0448 38.0448)">
<stop stop-color="#565550"/>
<stop offset="1" stop-color="#51514C"/>
</radialGradient>
<linearGradient id="paint15_linear_24_19687" x1="137.322" y1="29.4961" x2="170.58" y2="29.4961" gradientUnits="userSpaceOnUse">
<stop stop-color="#5C5D60"/>
<stop offset="0.0192" stop-color="#5A5B5C"/>
<stop offset="0.2048" stop-color="#474644"/>
<stop offset="0.4097" stop-color="#31312E"/>
<stop offset="0.6486" stop-color="#1C1C1A"/>
<stop offset="1" stop-color="#141311"/>
</linearGradient>
<linearGradient id="paint16_linear_24_19687" x1="170.227" y1="62.6367" x2="170.227" y2="29.1426" gradientUnits="userSpaceOnUse">
<stop stop-color="#5C5D60"/>
<stop offset="0.3855" stop-color="#444341"/>
<stop offset="0.7416" stop-color="#242421"/>
<stop offset="1" stop-color="#141311"/>
</linearGradient>
<linearGradient id="paint17_linear_24_19687" x1="47.1601" y1="70.7133" x2="68.4558" y2="99.5165" gradientUnits="userSpaceOnUse">
<stop stop-color="white"/>
<stop offset="0.1091" stop-color="#D3DFF2"/>
<stop offset="0.3376" stop-color="#89AEDC"/>
<stop offset="0.5419" stop-color="#4E90CD"/>
<stop offset="0.7143" stop-color="#007EC3"/>
<stop offset="0.8481" stop-color="#0075BD"/>
<stop offset="0.927" stop-color="#0071BC"/>
<stop offset="0.9468" stop-color="#007AC0"/>
<stop offset="0.9667" stop-color="#3681C3"/>
<stop offset="0.985" stop-color="#4985C6"/>
<stop offset="1" stop-color="#5087C7"/>
</linearGradient>
</defs>
</svg>
